<svg xmlns="http://www.w3.org/2000/svg" viewBox="0 0 1280 340" width="1280" height="340" role="img" aria-label="studio-engine: Generate a world, then re-render it and check the hash yourself."><defs><radialGradient id="halo"><stop offset="0" stop-color="#9BF745" stop-opacity="0.34"/><stop offset="0.4" stop-color="#9BF745" stop-opacity="0.08"/><stop offset="1" stop-color="#07080A" stop-opacity="0"/></radialGradient><radialGradient id="core"><stop offset="0" stop-color="#FFFFFF"/><stop offset="0.36" stop-color="#FFFFFF" stop-opacity="0.92"/><stop offset="0.74" stop-color="#9BF745" stop-opacity="0.6"/><stop offset="1" stop-color="#9BF745" stop-opacity="0"/></radialGradient><radialGradient id="pupil"><stop offset="0" stop-color="#07080A"/><stop offset="0.62" stop-color="#07080A"/><stop offset="1" stop-color="#9BF745" stop-opacity="0.3"/></radialGradient><linearGradient id="ray" x1="0" y1="0" x2="1" y2="1"><stop offset="0" stop-color="#9BF745"/><stop offset="1" stop-color="#22BF2F"/></linearGradient><linearGradient id="flare" x1="0" y1="0" x2="1" y2="0"><stop offset="0" stop-color="#FF3B57" stop-opacity="0"/><stop offset="0.22" stop-color="#FF3B57" stop-opacity="0.42"/><stop offset="0.5" stop-color="#FFFFFF" stop-opacity="0.9"/><stop offset="0.78" stop-color="#3B7BFF" stop-opacity="0.42"/><stop offset="1" stop-color="#3B7BFF" stop-opacity="0"/></linearGradient><linearGradient id="veil" x1="0" y1="0" x2="1" y2="0"><stop offset="0" stop-color="#07080A" stop-opacity="0.96"/><stop offset="0.4" stop-color="#07080A" stop-opacity="0.86"/><stop offset="0.64" stop-color="#07080A" stop-opacity="0"/></linearGradient><pattern id="scan" width="4" height="3" patternUnits="userSpaceOnUse"><rect width="4" height="1" fill="#07080A"/></pattern><filter id="grain" x="0" y="0" width="100%" height="100%"><feTurbulence type="fractalNoise" baseFrequency="0.9" numOctaves="3" seed="5366" result="n"/><feColorMatrix in="n" type="saturate" values="0"/></filter></defs><rect width="1280" height="340" fill="#07080A"/><g><circle cx="1012" cy="168" r="80" fill="none" stroke="url(#ray)" stroke-width="0.55" stroke-dasharray="4.06 8.94" stroke-dashoffset="8.57" opacity="0.38"/><circle cx="1012" cy="168" r="84.6" fill="none" stroke="url(#ray)" stroke-width="0.55" stroke-dasharray="11.61 8.71" stroke-dashoffset="35.71" opacity="0.37"/><circle cx="1012" cy="168" r="89.2" fill="none" stroke="url(#ray)" stroke-width="0.55" stroke-dasharray="11.2 33.24" stroke-dashoffset="18.41" opacity="0.36"/><circle cx="1012" cy="168" r="93.8" fill="none" stroke="url(#ray)" stroke-width="0.55" stroke-dasharray="12.93 38.39" stroke-dashoffset="27.72" opacity="0.35"/><circle cx="1012" cy="168" r="98.4" fill="none" stroke="url(#ray)" stroke-width="0.55" stroke-dasharray="9.47 27.42" stroke-dashoffset="10.5" opacity="0.33"/><circle cx="1012" cy="168" r="103" fill="none" stroke="url(#ray)" stroke-width="0.55" stroke-dasharray="10.12 20.74" stroke-dashoffset="3.97" opacity="0.32"/><circle cx="1012" cy="168" r="107.6" fill="none" stroke="url(#ray)" stroke-width="0.55" stroke-dasharray="12.36 12.74" stroke-dashoffset="26.28" opacity="0.3"/><circle cx="1012" cy="168" r="112.2" fill="none" stroke="url(#ray)" stroke-width="0.55" stroke-dasharray="8.38 16.39" stroke-dashoffset="11.11" opacity="0.27"/><circle cx="1012" cy="168" r="116.8" fill="none" stroke="url(#ray)" stroke-width="0.55" stroke-dasharray="5.49 13.54" stroke-dashoffset="25.77" opacity="0.25"/><circle cx="1012" cy="168" r="121.4" fill="none" stroke="url(#ray)" stroke-width="0.55" stroke-dasharray="4.81 9.35" stroke-dashoffset="27.21" opacity="0.23"/><circle cx="1012" cy="168" r="126" fill="none" stroke="url(#ray)" stroke-width="0.55" stroke-dasharray="3.24 8.05" stroke-dashoffset="0.44" opacity="0.2"/><circle cx="1012" cy="168" r="130.6" fill="none" stroke="url(#ray)" stroke-width="0.55" stroke-dasharray="2.74 3.11" stroke-dashoffset="23.75" opacity="0.17"/><circle cx="1012" cy="168" r="135.2" fill="none" stroke="url(#ray)" stroke-width="0.55" stroke-dasharray="12.51 19.41" stroke-dashoffset="34.56" opacity="0.14"/><circle cx="1012" cy="168" r="139.8" fill="none" stroke="url(#ray)" stroke-width="0.55" stroke-dasharray="2.81 6.02" stroke-dashoffset="26.26" opacity="0.11"/><path d="M1149.92 189.01L1150.45 189.09M1148.03 202.6L1150.6 203.26M1143.28 219.18L1143.8 219.38M1135.82 229.24L1135.96 229.31M883.27 219.56L881.4 220.31M879.07 207L877.04 207.6M1012.11 25.3L1012.11 22.44M1015.07 26.15L1015.14 23.06M1017.72 28.31L1017.94 22.95M1023.91 28.37L1024.13 25.81M1031.89 31.92L1032.37 28.64" stroke="url(#ray)" stroke-width="0.5" opacity="0.13"/><path d="M1132.62 169.83L1141.9 169.97M1137.8 173.01L1143.24 173.23M1135.6 175.68L1141.58 176.05M1134.1 178.16L1146.65 179.2M1145.09 181.1L1148.83 181.47M1139.66 184.02L1149.49 185.25M1135.9 186.87L1143.36 188.01M1131.6 187.82L1139.47 189.12M1145.21 190.07L1148.94 190.69M1133.19 191.54L1136.2 192.13M1142.77 193.41L1148.58 194.53M1140.28 195.03L1150.35 197.15M1133.18 195.51L1139.75 197M1144.99 198.19L1149.02 199.1M1129.69 197.94L1136.94 199.78M1130.93 201.37L1139.34 203.73M1142.5 204.61L1150.43 206.84M1136.96 206.57L1144.93 209.03M1141.92 210.52L1148.07 212.54M1128.27 207.46L1142.2 212.19M1134.78 214.33L1142.22 217.14M1126.79 212.75L1135.18 216.02M1123.56 215.56L1133.48 219.79M1127.44 218.51L1136.77 222.59M1121.05 219.78L1126.14 222.19M1131.3 224.65L1135.28 226.53M1121.11 221.97L1128.73 225.74M1123.72 225.35L1134.41 230.83M1124.58 230.23L1130.69 233.61M1124.18 235.08L1127.48 237.06M1118.32 235.5L1121.14 237.29M1119.42 242.57L1120.63 243.41M1111.89 244.99L1115.28 247.6M1109.48 245.64L1113.96 249.21M1101.46 249.22L1103.85 251.4M1100.93 258.93L1102.44 260.49M1097.51 265.63L1097.9 266.09M1090.97 263.05L1095.85 268.93M1092.33 270.04L1093.06 270.95M1085.16 263.6L1089.28 268.99M1085.08 272.51L1086.52 274.58M1081.78 271.82L1086.07 278.2M1077.17 274.13L1081.36 280.95M1075.28 276.73L1078.63 282.48M1067.53 274.88L1070.62 280.84M1068.71 283.19L1068.97 283.72M1066.38 284.31L1066.5 284.56M1063.54 283.99L1064.54 286.24M1061.65 285.14L1061.85 285.63M1057.23 283.91L1058.54 287.26M1053.13 280.87L1054.65 285.03M1046.7 284.32L1046.81 284.67M976.42 285.2L975.51 288.2M973.91 283.59L972.92 286.61M969.79 287.35L969.24 288.94M967.15 281.92L963.87 290.24M962.36 285.65L960.88 289.16M958.65 282.17L956.31 287.18M948.29 272.26L945.77 276.38M944.25 278.86L942.14 282.32M941.89 278.51L940.18 281.2M943.56 267.58L935.74 278.94M938.01 269.61L933.26 276.13M935.44 267.96L930.8 274.02M928.3 272.27L927.75 272.95M925.5 269.41L924.84 270.2M926.45 262.69L923.6 265.84M924.29 262.27L921.92 264.82M926.36 256.47L920.66 262.35M924.2 254.38L918.17 260.32M920.23 255.28L916.69 258.64M918.57 252.77L914.65 256.33M918.17 244.47L909.96 251.16M909.69 248.82L908.58 249.7M913.6 242.89L906.9 248M912.32 237.1L903.49 243.22M911.31 233.87L905.62 237.59M909.23 234.19L901.9 238.92M900.89 235.1L896.87 237.52M905.29 230.44L902.33 232.17M906.08 226.8L897.59 231.51M896.22 228.66L891.03 231.38M897.79 224.99L888.66 229.55M897.03 223.13L889.59 226.7M889.71 221.88L884.76 224.06M899.5 216.09L893.11 218.82M886.46 221.66L884.11 222.67M890.73 216.57L886.37 218.32M885.16 214.15L882.18 215.24M884.97 211.83L878.18 214.17M885.28 209.48L878.16 211.81M896.72 201.82L889.96 203.81M883.56 204.73L878.12 206.29M887.54 198.99L882.39 200.27M881.25 199.17L876.74 200.25M884.1 195.29L879.3 196.31M887.61 192.38L881.38 193.6M891.62 187.61L881.57 189.25M883.08 187.41L875.46 188.55M887.36 182.8L877.2 184.01M885.24 178.58L880.13 179.01M891.67 171.21L885.86 171.36M888.84 168.41L886.37 168.42M891.92 160.65L890.42 160.56M914.78 94.9L913.38 93.85M913.83 89.83L913.66 89.7M915.81 89.33L915.13 88.78M930.42 77.37L927.48 74.11M932.76 76.1L931.17 74.25M947.06 64.44L946.33 63.28M956.53 61.36L955.56 59.5M961.56 56.77L960.24 53.86M965.68 56.36L962.85 49.54M970.77 52.4L969.01 47.45M980.8 47.46L979.11 40.92M981.94 43.22L980.21 36.07M987.01 47.16L984.57 35.36M988.92 49.17L988.02 44.55M986.75 38.01L985.48 31.47M990.71 42.79L989.71 36.86M989.16 33.67L988.42 29.31M993.9 48.66L992.82 41.55M992.24 37.73L990.73 27.78M995.78 37.37L994.42 26.47M998.06 34.15L997.65 30.16M1001.35 34.22L1000.61 25.01M1003.04 34.66L1002.29 23.51M1006.88 43.72L1006.28 29.1M1008.79 36.34L1008.47 23.39M1012.1 36.28L1012.1 31.84M1014.61 47.36L1014.86 36.02M1020.49 39.16L1020.76 35.11M1020.98 31.73L1021.5 23.82M1025.27 34.75L1026.18 25.55M1026.53 47.72L1027.6 38.84M1027.98 35.72L1028.7 29.74M1033.86 41.06L1034.75 35.89M1035.23 47.23L1036.91 38.49M1038.58 44.74L1040.58 35.44M1038.76 49.87L1041.77 36.61M1044.67 48.36L1046.1 43.14M1046.81 53L1049.41 44.41M1048.97 53.42L1051.54 45.46M1052.7 52.93L1054.34 48.3M1063.87 57.18L1064.21 56.45M1094.47 79.74L1095.7 78.42M1109.42 94.23L1109.94 93.84M1113.94 103.12L1114.03 103.07M1137.26 161.87L1137.39 161.86" stroke="url(#ray)" stroke-width="0.64" opacity="0.27"/><path d="M1121.96 167.29L1134.97 167.21M1116.35 169.58L1121.95 169.67M1119.65 172.29L1129.03 172.66M1120.3 174.73L1132.43 175.48M1120.55 178.68L1135.11 180.12M1126.28 182.34L1130.62 182.88M1122.43 184.82L1127.45 185.59M1120.54 185.99L1126.69 187M1122.22 191.22L1127.81 192.4M1119.89 195.45L1126.91 197.23M1119.97 198.29L1124.38 199.53M1119.93 201.31L1125.79 203.12M1119.08 203.05L1130.05 206.64M1122.86 209.83L1131.21 212.98M1115.88 208.5L1122.45 211.06M1114.24 212.73L1119.83 215.18M1108.96 214.04L1111.72 215.35M1105 214L1114.24 218.57M1105.84 216.17L1114.48 220.6M1109.8 222.06L1120.01 227.7M1115.71 227.45L1123.65 232.01M1101.34 221.43L1113.8 228.88M1103.92 226.36L1108.57 229.31M1100 226.23L1106.8 230.73M1109.41 232.46L1117.55 237.85M1102.39 230.75L1112.86 238.02M1106.29 236.14L1117.27 244.07M1103.11 238.23L1107.75 241.8M1097.66 236.23L1101.86 239.58M1101.23 241.42L1112.36 250.58M1102.27 246.19L1105.46 248.95M1092.61 241.19L1096.85 245.04M1095.7 245.76L1103.57 253.08M1091.09 245.37L1100.1 254.19M1084.72 242.36L1091.87 249.68M1095.07 252.94L1097.23 255.16M1087.8 248.38L1097.98 259.17M1092.27 256.02L1095.52 259.58M1084.89 251.23L1094.05 261.69M1080.13 250.01L1085.41 256.36M1081.93 256.82L1085.81 261.74M1076.22 251.92L1078.83 255.33M1072.93 253.06L1075.14 256.14M1080.26 263.29L1086.41 271.87M1076.23 259.85L1082.44 268.74M1074.65 261.22L1078.99 267.66M1074.7 266.57L1079.97 274.86M1067.4 258.21L1070.51 263.28M1064.77 258.66L1069.93 267.54M1062.47 258.2L1066.76 265.86M1068.97 269.81L1075.94 282.26M1059.23 263.93L1064.08 273.79M1057.88 266.13L1061.36 273.57M1059.39 274.64L1061.53 279.46M1056.24 272.38L1057.66 275.74M1048.21 271.71L1052.77 284.8M1047.21 274.84L1049.29 281.16M1040.18 269.33L1043.37 280.79M1040.34 277.18L1041.84 282.97M1032.43 275.3L1033.46 280.73M1024.86 270.64L1025.92 279.15M1009.93 274.16L1009.87 277.43M1004.97 273.1L1004.64 278.17M1003.08 271.25L1002.44 278.67M998.57 278.48L998.34 280.34M996.82 273.81L995.95 279.86M994.17 275.38L993.12 281.69M992.55 269.47L991.14 276.8M990.12 282.13L989.84 283.61M988.75 279.52L988.02 283.05M985.88 280.01L984.81 284.57M982.48 281.89L981.35 286.25M980.21 278.65L978.17 285.76M981.3 269.15L979.85 273.92M979 268.16L976.63 275.34M977.23 266.33L972.94 278.47M970.05 278.84L966.32 288.7M972.99 267.08L970.92 272.34M969.44 268.86L965.46 278.31M964.84 274.68L961.74 281.7M967.47 263.3L964.25 270.2M963.06 272.74L961.57 275.92M960.62 269.48L954.06 282.43M957.05 274.65L954.31 279.96M954.81 272.3L948.76 283.33M954.78 268.18L947.85 280.31M950.56 264.85L945.1 273.45M952.08 257.28L949.73 260.78M945.85 266.57L937.99 278.28M950.65 252.25L943.75 261.72M946.46 253.58L943.22 257.8M939.96 257.75L935.15 263.74M944.15 250.74L941.96 253.41M937.99 258.25L930.8 267.02M942.39 249.61L938.06 254.69M936.43 256.61L933.04 260.58M937.7 250.24L934.64 253.62M936.86 248.76L930.46 255.64M935.63 246.89L930.42 252.27M934.14 242.05L926.77 249.06M929.54 242.81L924.03 247.81M923.5 245.18L913.91 253.54M921 239.89L916.4 243.52M925.05 234.18L920.07 237.97M917.55 235.78L907.26 243.17M918.69 224.34L913.88 227.25M910.43 229.33L906.65 231.62M919.75 221.98L915.04 224.74M910.34 221.26L899.17 227.11M916.04 215.88L908.41 219.69M909.28 217.26L903.94 219.82M912.05 212.04L900.98 216.92M913.88 209.94L906.28 213.19M907.47 209.87L895.93 214.49M902.26 207.93L890.8 212.1M902.61 205.74L892.7 209.16M905.48 202.87L894.64 206.42M912.81 196.37L907.44 197.9M903.69 198.98L892.21 202.26M911.33 193.06L898.58 196.24M898.43 195.08L889.14 197.3M902.19 191.43L887.65 194.53M904.04 189.16L900.23 189.9M902.75 184.45L892.34 186.01M896.55 181.71L892.03 182.25M899.56 179.33L891.56 180.13M901.94 177.19L893.16 177.92M895.93 174.73L885.33 175.35M908.77 171.96L901.56 172.23M892.47 172.58L884.94 172.87M904.79 170.86L895.94 171.09M906.42 165.49L893.48 165.18M906.41 164.39L900.68 164.2M894.07 163.97L889.32 163.81M908.53 158.88L898.85 158.03M895.12 157.7L893.61 157.57M901.69 156.49L897.98 156.1M902.82 153.88L896.39 153.05M905.41 146.09L901.52 145.29M908.9 141.54L904.05 140.29M907.84 138.63L903.73 137.47M913.63 135.85L906.32 133.46M906.21 131.74L905.92 131.64M906.88 128.57L906.28 128.34M913.96 129.41L908.78 127.37M910.43 122.74L907.16 121.28M913.14 120.95L907.5 118.26M908.14 116.24L907.55 115.94M913.34 115.5L910.13 113.8M914.89 115.12L911.58 113.32M913.23 110.74L908.73 108.12M919.05 111.31L909.25 105.34M911.25 104.51L909.17 103.2M917.58 105.71L910.19 100.84M919.38 103.58L913.19 99.28M924.66 104.36L919.18 100.36M916.03 98.07L912.56 95.55M924.95 102.55L919.93 98.77M929.27 102.13L922.68 96.88M922.46 89.75L917.8 85.67M931.98 95.57L927.97 91.94M925.78 89.95L919.51 84.28M932.39 93.57L924.14 85.86M934.74 92.34L932.52 90.16M928.91 86.63L925.36 83.16M931.09 86.57L928.4 83.86M939.55 91.49L930.27 81.69M941.7 81.7L935.7 74.35M947.33 86.65L944.62 83.24M941.02 78.71L934.7 70.76M942.7 75.67L938.39 69.94M948.66 81.8L946.42 78.76M944.62 76.31L939.66 69.56M944.98 70.12L941.94 65.68M947.52 72.13L945.51 69.13M953.21 74.26L948.39 66.58M958.06 77.83L952.37 68.32M954.43 69.74L949.72 61.7M961.23 75.04L954.25 62.28M964.17 76.05L962.66 73.15M961.36 70.65L957.84 63.88M962.61 70.02L958.08 61.02M962.01 62.44L958.26 54.52M966.16 66.92L962.91 59.74M970.7 62.71L965.97 50.65M973 63.75L970.16 56.15M976.35 56.83L973.52 48M982.18 68.43L980.63 63.26M979.7 60.16L975.43 45.88M980.11 53.86L978.7 48.8M983.91 59.45L981.8 51.31M987.26 65.31L984.94 55.68M989.79 60.58L987.65 50.25M991.39 61.92L990.68 58.23M993.74 60.56L991.61 48.06M996.52 65.91L994.45 52.31M999.19 64.86L997.37 50.19M1001.24 64.65L1000.72 59.64M1000.45 57.06L999.33 46.32M1002.53 49.03L1001.92 41.45M1004.02 49.15L1003.47 40.96M1007.72 64.16L1007.23 52.14M1009.45 63.7L1009.34 59.11M1009.24 54.86L1008.99 44.49M1012.09 49L1012.09 44.82M1016.71 53.08L1017.3 38.72M1018.9 63.3L1019.73 50.77M1022.2 48.5L1023.27 35.9M1023.35 54.05L1024.4 43.5M1029.21 50.25L1031.01 37.93M1031.85 52.77L1033.21 44.87M1031.68 65.68L1033.65 55.43M1041.94 52.25L1044.33 43.01M1040.56 63.42L1043.31 53.35M1044.91 65.99L1046.06 62.43M1052.79 59.1L1056.02 50.46M1055.26 59.87L1057.68 53.83M1054.67 65.14L1059.01 54.67M1060.18 61.16L1062.4 56.25M1057.64 70.49L1061.16 62.97M1060.27 70.59L1061.82 67.45M1063.83 63.39L1065.31 60.42M1065.92 66.69L1067.95 62.87M1068.89 62.97L1069.93 61.05M1069.42 69.41L1071.62 65.64M1068.44 73.46L1073.68 64.69M1075.01 68.07L1075.83 66.77M1073.3 75.06L1077.56 68.61M1072.14 80.46L1078.02 71.91M1082.2 72.2L1083.79 70.03M1074.25 84.91L1080.21 76.96M1077.43 85.13L1084.5 76.18M1083.17 82.8L1087.73 77.34M1080.31 89.89L1087.56 81.61M1081.07 90.24L1090.43 79.71M1090.25 84.25L1092.41 81.94M1087.1 91.13L1091.62 86.5M1094.27 83.78L1097.25 80.74M1094.47 89.85L1101.88 82.82M1099.06 89.59L1103.68 85.43M1097.26 95.33L1106.37 87.57M1102.05 94.14L1107.52 89.66M1103.36 95.05L1107.97 91.36M1101.5 100.23L1107 96.06M1105.62 99.04L1110.64 95.35M1103.76 104.44L1112.03 98.71M1106.1 105.8L1111.41 102.29M1105.23 108.67L1109.22 106.13M1105.17 111.64L1114.81 105.81M1102.72 115.79L1108.48 112.47M1107.57 116.24L1112.67 113.48M1105.31 118.89L1113.38 114.64M1112.75 117.28L1116.48 115.4M1114.78 119.68L1117.22 118.54M1113.03 123.14L1117.22 121.29M1115.78 123.93L1118.28 122.86M1111.49 128.96L1118.07 126.38M1121.1 137.49L1121.25 137.45M1120.4 139.33L1121.72 138.98M1113.77 144.97L1119.97 143.57M1114.09 146.92L1126.3 144.4M1117.7 150.68L1125.21 149.45M1118.92 153.01L1129.82 151.48M1127.21 154.06L1131.71 153.52M1128.81 155.97L1132.94 155.54M1127.23 157.59L1130.5 157.3M1123.67 161.81L1130.64 161.42M1118.88 162.77L1124.38 162.5M1119.34 164.99L1133.01 164.6" stroke="url(#ray)" stroke-width="0.78" opacity="0.41"/><path d="M1105.78 169.42L1110.37 169.49M1107.76 173.95L1113.22 174.29M1111.05 176.24L1122.3 177.17M1103.17 176.97L1110.53 177.7M1109.84 180.28L1120.34 181.59M1108.94 182.77L1113.17 183.41M1106.42 183.65L1116.98 185.39M1110 187.04L1120.91 189.16M1105.45 187.69L1116.91 190.11M1099.05 187.76L1107.24 189.62M1110.14 190.28L1121.43 192.84M1105.53 191.79L1108.88 192.64M1105.26 194.16L1110.92 195.75M1107.73 197.55L1113.93 199.46M1097.43 195.96L1108.71 199.65M1103.83 199.17L1116.94 203.62M1108.4 204.38L1120.25 208.85M1098.62 201.77L1105.16 204.32M1104.13 207.28L1117.41 212.94M1095.82 204.68L1107.2 209.65M1091.21 205.61L1100.14 209.85M1097.02 210.05L1100.35 211.7M1096.28 214.59L1103.33 218.48M1098.29 217.47L1104.5 221.03M1095.48 221L1098.77 223.09M1089.16 219.06L1092.33 221.16M1090.28 222.34L1095.21 225.76M1093.57 226.95L1097.98 230.14M1090.64 228.62L1096.26 232.94M1087.99 228.53L1091.48 231.3M1088.72 231.13L1099.06 239.64M1079.85 226.77L1084.68 230.95M1088.68 234.41L1092.47 237.7M1087.57 236.62L1090.25 239.04M1084.84 235.67L1089.42 239.92M1077.66 232.24L1083.75 238.2M1076.91 234.38L1082.72 240.31M1073.94 233.68L1079.45 239.52M1078.68 241.11L1084.71 247.73M1070.92 235.27L1077.99 243.36M1072.32 244.61L1078.99 253.09M1065.56 238L1073.73 248.68M1064.73 241.62L1070.49 249.64M1069.63 250.41L1072.58 254.63M1065.67 247.85L1072.36 257.8M1063.99 249.74L1068.92 257.48M1055.85 243.35L1058.4 247.73M1058.8 258.08L1064.18 268.45M1051.21 247.64L1056.58 258.55M1052.81 255.29L1054.93 259.83M1053.75 261.95L1056.22 267.52M1049.63 256.79L1053.65 266.28M1049.09 263.04L1053.56 274.49M1046.97 263.95L1048.92 269.3M1042.93 256.61L1044.12 260M1045.54 264.07L1046.9 267.97M1041.11 256.35L1044.95 268.01M1040.45 263.38L1043.85 274.75M1035.58 252.78L1037.62 260.13M1035.03 256.73L1037.28 265.39M1033.92 262.94L1036.19 272.78M1032.28 265.13L1034.67 276.59M1030.22 263.69L1031.71 271.53M1028.07 259.84L1028.78 263.89M1029.37 267.28L1030.28 272.47M1025.13 261.38L1027.04 274.96M1022.67 262.38L1023.3 267.94M1019.88 260.92L1020.95 273.54M1017.15 261.08L1017.4 265.62M1017.67 270.48L1017.97 275.8M1016.22 265.54L1016.42 270.16M1014.27 261.5L1014.35 264.99M1014.47 269.71L1014.65 277.46M1011.38 264.02L1011.31 274.71M1008.42 269.58L1008.12 278.07M1000.68 269.87L1000.22 274.01M1000.49 262.7L999.27 272.74M998.12 264.74L997.26 270.76M996.67 260.34L996.16 263.4M991.33 267.15L990.04 273.33M989.99 262.37L987.52 272.96M986.18 267.63L984.76 273.09M985.87 258.95L982.42 270.98M985.66 254.78L983.56 261.7M976.08 262.91L972 273.68M978.01 254.32L976.25 258.81M974.95 255.81L973.74 258.68M972.01 258.48L969.06 265.15M975.42 246.29L970.19 257.48M970.31 250.34L964.72 261.38M965.76 257.73L962.12 264.81M966 251.89L959.97 262.88M964.44 251.27L957.07 264.16M958.57 255.42L953.44 263.81M957.81 253.42L954.83 258.11M956.77 248.36L949.34 259.17M957.58 242.74L955.46 245.64M948.55 247.04L945.54 250.8M952.16 240.98L947.17 247.05M948.29 238.51L944.34 242.89M944.66 240.37L940.24 245.13M948.06 234.04L940.33 242.04M938.64 240.17L932.6 246.12M944.75 229.01L933.94 238.82M936.52 233.82L929.64 239.83M933.89 231.66L923.13 240.43M931.67 231.46L925.51 236.32M934.15 227.25L927.68 232.18M928.92 227.62L925.17 230.32M932.8 222.9L921.12 230.99M930.57 221.27L919.8 228.31M927.39 222.5L919.68 227.46M927.08 219.28L921.77 222.49M931.6 215.05L926.35 218.12M924.85 216.38L915.52 221.56M920.89 215.74L914.4 219.13M927.36 210.23L924.06 211.88M927.04 208.74L916.42 213.83M925.83 205.97L916.38 210.13M927.89 203.95L924.61 205.36M918.55 205.43L912.53 207.84M917.57 202.36L907.98 205.85M926.55 197.48L920.11 199.7M917.57 200.58L907.09 204.2M919.77 198.19L916.5 199.26M916.01 196.16L902.09 200.25M924.49 193.03L919.22 194.53M914.91 191.15L901.77 194.28M922.32 187.13L913.68 188.98M917.23 186.57L911.52 187.69M915.54 183.71L903.47 185.68M915.95 182.46L908.2 183.63M917.64 179.21L904.63 180.75M920.07 177.26L909.79 178.29M920.2 175.67L912.62 176.3M913.07 173.74L906.58 174.11M922.63 171.43L914.63 171.73M915.84 170.56L910.04 170.72M911.84 168.34L900.5 168.37M916.43 165.73L912.99 165.64M912.96 161.94L902.83 161.32M914.07 157.78L906.17 156.96M922.43 156.42L913.42 155.25M915.37 153.36L902.1 151.35M912.77 151.57L908.26 150.82M918.31 150.73L904.24 148.14M917.33 148.54L912.66 147.58M913.22 145.41L901.87 142.81M918.3 143.95L915.3 143.18M913.62 139L905.51 136.61M923.68 134.87L918.69 133M931.59 136.35L918.93 131.36M930.48 133.11L926.77 131.52M920.04 128.64L906.89 123.01M924.03 128.8L918.04 126.13M921.63 124.99L918 123.26M924.5 124.39L911.18 117.75M927.4 122.99L917.84 117.9M930.99 123.88L925.84 121.08M927.84 119.21L919.01 114.09M932.72 119.65L929.25 117.53M937.76 121.21L929.73 116.16M925.56 113.53L920.35 110.24M927.78 112.44L924.56 110.32M936.54 115.52L927.19 109.02M935.6 110.56L929.12 105.69M939.84 108.98L937.38 106.97M934.45 104.58L925.13 96.95M935.43 101.08L927.85 94.46M945.02 107.37L934.06 97.46M937.61 98.46L935.33 96.33M941.64 99.1L938.34 95.86M942.15 97.71L938.78 94.31M948.4 100.84L945.52 97.8M943.87 92.32L936.06 83.64M945.56 90.94L940.78 85.4M950.8 92.87L948.27 89.77M953.14 89.59L945.35 79.2M958.93 90.49L950.71 78.48M955.97 84.69L952.87 80.09M962.89 89.69L956.8 79.98M965.71 89L958.36 76.45M967.74 82.91L966.32 80.17M970.76 86.19L967.41 79.54M969.66 78.59L967.22 73.45M971.41 78.5L968.39 71.84M973.68 75.63L970.47 67.91M976.35 77.11L972.23 66.6M976.03 71.83L974.36 67.37M977.86 72.29L974.56 63.02M982.78 76.89L979.24 65.84M985.58 73.44L981.94 60.4M986.22 68.37L985.22 64.51M990.96 80.69L988.49 70.4M991.22 67.51L990.37 63.4M994.3 76.86L992.38 67.03M996.22 75.17L994.84 67.08M1003.93 66.61L1003.22 57.7M1005.49 71.01L1004.51 56.42M1009.7 73.63L1009.6 69.5M1012.08 66.44L1012.09 53.59M1014.1 71L1014.42 56.5M1016.03 69.74L1016.52 57.78M1018.17 74.34L1018.53 68.93M1020.68 66.32L1021.61 55.42M1022.22 65.4L1022.93 58.24M1022.6 80.21L1023.48 72.95M1024.32 66L1025.87 53.21M1026.89 66.16L1028.29 56.55M1028.98 69.42L1031.07 57.26M1029.27 78.17L1029.95 74.67M1033.11 70.11L1035.87 57.31M1034.26 69.72L1036.92 58.02M1037 71.33L1040.19 59.01M1038.31 71.66L1039.39 67.72M1041.23 71.43L1044.4 60.96M1040.28 80.35L1042.02 74.97M1045.26 73.96L1049.38 62.32M1042.57 86.36L1044.93 80.07M1047.1 74.29L1051.05 63.73M1047.69 78.78L1052.03 67.94M1047.81 81.68L1052.77 69.71M1051.19 81.09L1055.19 72.23M1052.49 81.49L1055.8 74.43M1059.52 78.7L1062.15 73.77M1056.8 85.29L1063.78 72.4M1061.12 83.67L1063.56 79.47M1062.68 83.11L1065.54 78.32M1064.11 85.35L1068.7 78.07M1063.04 90.61L1070.88 78.73M1065.81 89.68L1069.25 84.68M1069.66 89.32L1074.63 82.53M1066.17 95.7L1072.21 87.64M1071.71 96.52L1080.7 85.76M1075.61 99.92L1082.78 92.25M1079.64 98.76L1083.76 94.54M1075.31 106.88L1077.76 104.51M1086.03 96.53L1093.87 88.96M1083.31 100.42L1091.11 93.03M1087.86 99.68L1090.78 97.05M1087.9 103.31L1091.91 99.9M1087.07 106.42L1092.38 102.07M1090.97 104.94L1095.31 101.48M1087.59 110.76L1097.63 103.15M1092.65 108.6L1102.86 101.08M1091.6 115.39L1095.65 112.71M1094.65 115.4L1098.91 112.69M1092.14 119.52L1096.02 117.18M1088.72 126.45L1097.15 121.88M1099.44 123.98L1110.38 118.47M1101.84 125.77L1106.94 123.37M1104.57 126.9L1107.54 125.59M1102.61 129.52L1107.67 127.37M1099.49 133.67L1102.93 132.32M1107.87 131.68L1116.1 128.56M1106.2 135.1L1118.11 130.93M1096.41 140.77L1099.66 139.72M1107.17 137.3L1120.32 133.06M1109.37 138.71L1121.06 135.2M1101.73 142.91L1111.29 140.24M1110.43 141.96L1115.83 140.54M1103.38 147.32L1110.18 145.78M1100.9 150.85L1108.39 149.4M1112.25 148.66L1118.42 147.47M1102.98 153.09L1110.61 151.84M1109.63 154.31L1115.38 153.51M1113.53 155.72L1120.38 154.89M1109.15 157.99L1122.98 156.57M1106.73 159.44L1121.45 158.11M1110.03 162.56L1113.81 162.36" stroke="url(#ray)" stroke-width="0.92" opacity="0.55"/><path d="M1096.86 167.45L1110.81 167.36M1093.28 169.23L1101.39 169.36M1095.92 171.34L1109 171.86M1091.53 172.94L1105.08 173.78M1090.42 174.52L1102.55 175.53M1091.48 175.82L1095.55 176.22M1096.14 178.56L1103.71 179.51M1093.6 180.43L1103.42 181.93M1089.93 180.91L1102.87 183.06M1090.71 183.29L1105.19 186.11M1089.44 184.32L1095.51 185.6M1089.14 185.51L1094.68 186.77M1093.76 188.8L1100.89 190.61M1088.18 189.37L1096.67 191.75M1085.16 190.58L1099.04 194.86M1084.37 191.69L1091.14 193.9M1088.03 193.8L1097.49 197.01M1087.3 196.41L1098.25 200.55M1084.94 196.44L1090.93 198.77M1089.07 200.86L1099.16 205.16M1084.8 199.85L1092.73 203.32M1081.49 200.99L1087.45 203.82M1086.52 204.86L1091.3 207.22M1085.62 205.79L1098.08 212.19M1083.89 207.74L1092.05 212.25M1081.47 207.82L1090.32 212.9M1084.9 211.6L1096.52 218.54M1080.57 211.53L1087.39 215.86M1076.15 210.45L1079.94 212.96M1076.21 212.57L1088.12 220.84M1076.45 214.57L1088.12 223.01M1078.9 219.56L1084.59 223.95M1077.03 219.79L1080.6 222.64M1075.56 220.3L1081.54 225.22M1070.44 218.62L1073.65 221.4M1071.63 222.14L1081.78 231.35M1071.04 222.85L1077.2 228.57M1067.99 222.78L1075.3 229.93M1067.7 224.96L1074.95 232.37M1066.5 225.79L1072.19 231.82M1063.45 224.41L1065.94 227.15M1068.5 229.95L1074.12 236.12M1063.3 226.57L1065.73 229.36M1063.98 230.57L1072.43 240.74M1060.93 230.14L1066.48 237.19M1058.59 228.88L1061.73 232.98M1056.68 230.37L1059.13 233.79M1057.34 232.85L1064.57 243.17M1056.61 234.38L1061.31 241.37M1054.87 235.4L1058.16 240.57M1056.25 240.06L1062.03 249.47M1050.89 234.82L1054.32 240.71M1052.43 240.26L1056.19 246.98M1049.81 240.78L1053.35 247.59M1045.89 236.84L1048.32 241.78M1047.67 244.29L1050.06 249.4M1044.61 241.38L1049.48 252.34M1044.05 243.62L1046.79 250.09M1041.96 244.79L1046.48 256.37M1039.22 242.69L1043.13 253.42M1038.21 243.09L1040.33 249.16M1037.69 245.96L1039.81 252.4M1035.67 247.34L1037.47 253.37M1032.98 243.44L1034.18 247.76M1031.69 243.84L1033.84 252.15M1030.42 247.78L1031.85 254M1029.04 249.6L1030.3 255.65M1027.02 246.9L1027.81 251.04M1025.32 244.11L1026.35 250.03M1023.42 249.18L1024.61 257.67M1022.28 250.09L1023.87 262.73M1021.5 252.08L1022.25 258.7M1018.48 244.32L1018.91 249.48M1016.62 251.51L1016.82 255.11M1015.34 245.19L1015.75 254.68M1014.04 252.31L1014.2 258.87M1011.51 245.02L1011.41 259.35M1010.41 249.9L1010.15 263.23M1009.26 245.84L1008.79 258.99M1006.52 250.04L1005.54 264.68M1005 249.06L1004.13 259.03M1002.76 251.18L1001.94 258.56M1002.6 245.32L1001.2 256.8M1000.32 249.39L999.74 253.47M998.84 247.24L998.23 250.94M996.83 247.1L994.87 257.35M994.92 249.92L993.67 255.93M993.85 245.81L990.63 259.64M990.71 250.12L988.43 258.93M988.77 248.87L987.87 251.99M988.46 245.56L986.74 251.2M985.83 247.42L981.68 260.02M985.99 241.56L981.52 254.18M984.96 239.44L980.14 252.19M982.89 241.93L980.78 247.29M982.11 238.84L976.33 252.55M979.69 241.09L976.41 248.53M978.5 239.7L976.62 243.71M973.71 243.62L971.84 247.32M974.15 241.46L969.79 249.92M973.61 238.02L969.79 244.97M972.45 237.24L965.85 248.79M971.22 234.73L965.28 244.45M970.06 234.11L963.53 244.4M965.29 237.59L958.81 247.25M968.29 231.59L962.58 239.9M964.35 233.44L959.36 240.29M961.02 234.56L952.79 245.31M961.84 230.49L954.48 239.66M962.46 228.41L954.1 238.6M957.55 231.85L948.57 242.37M960.5 225L950.94 235.58M955.17 229.08L950.72 233.86M957.47 224.33L951.69 230.3M952.63 226.41L947.72 231.25M952.23 224.84L942.53 234.07M949.95 224.3L947.35 226.66M950.62 221.52L942.62 228.5M951.15 217.6L940.51 226.27M952.24 215.21L947.23 219.16M944.72 221.14L936.16 227.91M945.58 218.56L937 225.09M949.83 212.62L937.89 221.19M945.33 214.22L937.69 219.51M945.73 211.35L938.9 215.82M947.79 209.36L938.05 215.63M940.4 211.23L931.12 216.84M945.25 207.06L941.87 209.04M943.41 206.08L935.79 210.31M937.44 207.06L927.98 212.02M938.64 204.61L929.95 208.94M939.06 202.97L935.06 204.9M936.48 201.28L931.64 203.41M940.8 198.44L936.48 200.28M933.96 199.26L926.11 202.4M933.03 196.73L928.43 198.41M934.55 194.72L929.01 196.63M936.77 192.63L923.79 196.87M934.64 190.7L923.86 193.86M938.41 189.04L928.97 191.75M933.12 187.64L920.43 190.8M935.21 186.31L923.5 189.1M931.5 185.17L925.75 186.4M932.49 183.58L922.27 185.59M933.53 180.78L922.94 182.51M933.92 179.75L920.9 181.71M933.7 177.3L920.54 178.86M929.28 176.33L924.16 176.85M931.65 174.71L923.41 175.4M928.53 172.84L917.66 173.47M936.03 170.91L932.11 171.06M929.86 170.19L922.19 170.39M932.2 168.27L921.62 168.3M930.83 166.07L919.57 165.8M928.13 165.14L914.27 164.66M927.71 162.84L916.6 162.16M929.44 160.73L920.11 159.9M929.13 159.35L918.65 158.26M932.17 157.68L926.83 156.99M931.34 155.78L919.16 153.94M930.26 154.47L917.59 152.37M932.98 153.44L925.77 152.11M935.35 152.25L928.41 150.82M931.31 149.55L924.13 147.91M935.02 148.24L930.08 146.97M933.83 145.96L920.33 142.15M932.96 144.7L921.99 141.47M934.12 142.55L925.09 139.6M931.93 140.55L918.3 135.88M935 139.12L930.56 137.45M937.48 138.66L934.14 137.35M940.31 137.32L934.44 134.8M937.34 134.73L928.26 130.68M941.4 134.39L932.12 129.98M936.7 130.47L928.64 126.45M938.38 128.83L932.23 125.55M944.33 131.15L938.08 127.75M938.73 125.52L932.24 121.76M946.01 127.75L935.15 121.13M946.36 126.63L942.29 124.07M941.63 121.58L931.49 114.89M948.11 123.56L941.17 118.74M945.48 119.53L935.02 111.91M947.8 119.73L944.96 117.59M946.05 115.49L936.22 107.67M950.06 117.35L943.28 111.8M948.72 112.69L944.45 108.97M954.74 116.18L949.52 111.45M955.88 115.53L945.1 105.46M955.16 112.34L947.68 105.01M952.5 108.11L949.54 105.14M955.19 108.01L950.14 102.68M957.97 107.97L948.74 97.72M957.76 105.09L951.07 97.33M962.77 107.57L955.73 98.93M961.29 104.21L952.24 92.83M965.32 105.81L957.59 95.51M963.7 102.28L955.76 91.46M967.5 103.01L964.64 98.84M965.91 99.48L963.13 95.33M969.76 100.64L967.63 97.25M971.1 99.62L964.05 87.85M972.53 100.64L967.87 92.68M971.36 93.59L965.93 83.65M976.69 100.12L970.28 87.8M977.46 99.48L972.95 90.54M979.23 98.8L973.27 86.21M980.19 97.84L974.78 85.92M982.43 96.72L977.97 85.99M983.68 95.79L980.08 86.63M982.58 89.36L980.06 82.61M984.66 91.33L981.85 83.47M986.75 89.27L985.41 85.07M988.75 90.37L985.1 78.18M989.67 88.08L988.39 83.49M992.87 94.07L989.4 80.67M993.28 90.31L991.57 83.2M995.65 88.95L993.79 79.94M997.5 93.36L996.27 87.01M998.15 86.53L996.99 79.71M999.82 87.71L997.71 73.76M1001.82 86.05L1000.6 76.23M1003.33 84.69L1002.45 76.26M1005.61 87.7L1004.9 78.83M1006.86 91.53L1006.31 83.24M1008.77 89.67L1008.23 76.39M1010.05 87.88L1009.96 84.42M1012.06 85.41L1012.07 76.1M1013.83 83.75L1013.99 76.31M1015.31 87.25L1015.59 80.41M1017.03 91.72L1017.74 80.97M1018.73 89.14L1019.86 75.92M1020.31 84.54L1021.48 72.84M1021.21 91.74L1021.85 86.48M1023.58 88.78L1025.45 75.96M1025.57 89.21L1027.82 76.17M1026.54 92.41L1027.9 85.3M1028.58 91.07L1031.07 79.56M1030.72 85.37L1031.56 81.66M1032.98 86.86L1034.82 79.75M1032.3 93.68L1035.08 83.49M1036.21 88.02L1038.87 79.23M1037.18 89.96L1039.06 84.14M1038.94 91.83L1043.41 79.19M1038.66 96.81L1040.18 92.76M1040.31 97.24L1044.13 87.69M1043.99 90.88L1045.69 86.78M1043.88 97.31L1047.49 89.31M1047.24 92.71L1050.84 85.01M1049.27 92.78L1054.68 81.87M1051.37 94.02L1053.79 89.47M1050.02 97.81L1053.78 90.85M1053.14 97.37L1059.67 86.16M1055.43 95.26L1057.25 92.2M1053.83 101.66L1058.66 93.99M1058.15 98.04L1060.98 93.74M1059.77 98.48L1061.95 95.29M1058.64 104.35L1064.43 96.45M1059.86 104.12L1064.48 97.95M1064.34 101.7L1072.89 90.87M1065.56 103.88L1068.38 100.51M1065.34 107.01L1072.29 99.06M1063.92 109.55L1073.54 98.72M1064.01 112.34L1066.8 109.35M1071 107.61L1077.49 100.96M1070.03 111.98L1072.85 109.25M1070.72 112.36L1078.57 104.91M1069.74 116L1078.42 108.18M1072.84 116.15L1081.51 108.76M1073.14 117.85L1082.27 110.37M1077.41 115.76L1084.25 110.31M1076.57 119.11L1082.62 114.52M1080.06 117.87L1086.85 112.87M1081.55 119.83L1093.54 111.52M1078.6 123.98L1081.11 122.32M1078.8 125.49L1081.61 123.7M1083.86 122.27L1087.53 119.93M1079.77 127.01L1087.8 122.15M1079.69 129.04L1092.18 121.86M1081.23 130.51L1085.46 128.22M1083.71 130.26L1096.35 123.6M1080.68 133.42L1091.76 127.84M1085.13 133.62L1093.48 129.7M1088.07 134.23L1094.4 131.42M1089.45 135.11L1092.62 133.76M1084.42 139.58L1090.56 137.17M1089.78 138.53L1100.13 134.61M1086.55 141.96L1100.55 137.07M1086.47 143.98L1090.91 142.55M1092.6 143.76L1106.67 139.52M1086.2 147.25L1093.95 145.08M1089.92 147.39L1102.24 144.13M1088.24 150.75L1092.03 149.89M1089.87 151.92L1101.61 149.5M1087.71 153.39L1094.49 152.08M1087.53 155.62L1099.15 153.72M1088.09 157.33L1097.92 155.96M1094.82 157.98L1102.51 157.05M1093.6 159.59L1103.07 158.62M1094.11 160.58L1102.42 159.83M1088.24 163.77L1099.67 163.14M1095.02 163.94L1109.54 163.23M1096.69 165.62L1110.94 165.22" stroke="url(#ray)" stroke-width="1.06" opacity="0.69"/><g fill="#9BF745"><circle cx="1056.43" cy="180.3" r="1.49" opacity="0.57"/><circle cx="1050.25" cy="193.73" r="1.49" opacity="0.57"/><circle cx="1045.63" cy="199.54" r="1.49" opacity="0.57"/><circle cx="1033.91" cy="208.56" r="1.49" opacity="0.57"/><circle cx="1027.12" cy="211.55" r="1.49" opacity="0.57"/><circle cx="1019.94" cy="213.41" r="1.49" opacity="0.57"/><circle cx="1012.55" cy="214.1" r="1.49" opacity="0.57"/><circle cx="997.92" cy="211.9" r="1.49" opacity="0.57"/><circle cx="991.07" cy="209.07" r="1.49" opacity="0.57"/><circle cx="984.75" cy="205.18" r="1.49" opacity="0.57"/><circle cx="979.14" cy="200.33" r="1.49" opacity="0.57"/><circle cx="974.38" cy="194.64" r="1.49" opacity="0.57"/><circle cx="970.59" cy="188.26" r="1.49" opacity="0.57"/><circle cx="967.88" cy="181.35" r="1.49" opacity="0.57"/><circle cx="966.31" cy="174.1" r="1.49" opacity="0.57"/><circle cx="965.92" cy="166.69" r="1.49" opacity="0.57"/><circle cx="968.7" cy="152.17" r="1.49" opacity="0.57"/><circle cx="971.8" cy="145.43" r="1.49" opacity="0.57"/><circle cx="975.95" cy="139.27" r="1.49" opacity="0.57"/><circle cx="981.02" cy="133.86" r="1.49" opacity="0.57"/><circle cx="986.9" cy="129.33" r="1.49" opacity="0.57"/><circle cx="993.43" cy="125.81" r="1.49" opacity="0.57"/><circle cx="1000.43" cy="123.37" r="1.49" opacity="0.57"/><circle cx="1007.74" cy="122.1" r="1.49" opacity="0.57"/><circle cx="1015.16" cy="122.01" r="1.49" opacity="0.57"/><circle cx="1022.5" cy="123.11" r="1.49" opacity="0.57"/><circle cx="1029.56" cy="125.38" r="1.49" opacity="0.57"/><circle cx="1036.17" cy="128.75" r="1.49" opacity="0.57"/><circle cx="1047.36" cy="138.42" r="1.49" opacity="0.57"/><circle cx="1051.65" cy="144.48" r="1.49" opacity="0.57"/><circle cx="1054.91" cy="151.14" r="1.49" opacity="0.57"/><circle cx="1057.06" cy="158.24" r="1.49" opacity="0.57"/><circle cx="1058.04" cy="165.59" r="1.49" opacity="0.57"/><circle cx="1055.91" cy="194.32" r="1.34" opacity="0.51"/><circle cx="1040.59" cy="210.47" r="1.34" opacity="0.51"/><circle cx="1034.1" cy="214.18" r="1.34" opacity="0.51"/><circle cx="1027.14" cy="216.91" r="1.34" opacity="0.51"/><circle cx="1019.86" cy="218.59" r="1.34" opacity="0.51"/><circle cx="1004.95" cy="218.71" r="1.34" opacity="0.51"/><circle cx="990.64" cy="214.53" r="1.34" opacity="0.51"/><circle cx="984.09" cy="210.92" r="1.34" opacity="0.51"/><circle cx="978.14" cy="206.4" r="1.34" opacity="0.51"/><circle cx="972.91" cy="201.06" r="1.34" opacity="0.51"/><circle cx="968.51" cy="195.02" r="1.34" opacity="0.51"/><circle cx="965.04" cy="188.4" r="1.34" opacity="0.51"/><circle cx="962.57" cy="181.34" r="1.34" opacity="0.51"/><circle cx="961.15" cy="174" r="1.34" opacity="0.51"/><circle cx="963.41" cy="151.85" r="1.34" opacity="0.51"/><circle cx="966.28" cy="144.95" r="1.34" opacity="0.51"/><circle cx="970.12" cy="138.54" r="1.34" opacity="0.51"/><circle cx="974.86" cy="132.76" r="1.34" opacity="0.51"/><circle cx="993.33" cy="120.33" r="1.34" opacity="0.51"/><circle cx="1000.47" cy="118.12" r="1.34" opacity="0.51"/><circle cx="1015.33" cy="116.91" r="1.34" opacity="0.51"/><circle cx="1048.58" cy="132.17" r="1.34" opacity="0.51"/><circle cx="1053.4" cy="137.88" r="1.34" opacity="0.51"/><circle cx="1057.35" cy="144.23" r="1.34" opacity="0.51"/><circle cx="1060.32" cy="151.08" r="1.34" opacity="0.51"/><circle cx="1062.27" cy="158.3" r="1.34" opacity="0.51"/><circle cx="1063.15" cy="165.72" r="1.34" opacity="0.51"/><circle cx="1062.94" cy="173.19" r="1.34" opacity="0.51"/><circle cx="1061.64" cy="180.56" r="1.34" opacity="0.51"/><circle cx="1059.28" cy="187.65" r="1.34" opacity="0.51"/><circle cx="1050.82" cy="208.78" r="1.18" opacity="0.44"/><circle cx="1038.67" cy="217.58" r="1.18" opacity="0.44"/><circle cx="1031.82" cy="220.7" r="1.18" opacity="0.44"/><circle cx="1024.62" cy="222.87" r="1.18" opacity="0.44"/><circle cx="1009.67" cy="224.25" r="1.18" opacity="0.44"/><circle cx="1002.2" cy="223.44" r="1.18" opacity="0.44"/><circle cx="994.9" cy="221.64" r="1.18" opacity="0.44"/><circle cx="981.33" cy="215.21" r="1.18" opacity="0.44"/><circle cx="969.95" cy="205.43" r="1.18" opacity="0.44"/><circle cx="961.55" cy="192.99" r="1.18" opacity="0.44"/><circle cx="956.74" cy="178.78" r="1.18" opacity="0.44"/><circle cx="956.92" cy="156.35" r="1.18" opacity="0.44"/><circle cx="958.96" cy="149.11" r="1.18" opacity="0.44"/><circle cx="970.54" cy="129.91" r="1.18" opacity="0.44"/><circle cx="982.08" cy="120.31" r="1.18" opacity="0.44"/><circle cx="988.71" cy="116.75" r="1.18" opacity="0.44"/><circle cx="1003.07" cy="112.41" r="1.18" opacity="0.44"/><circle cx="1018.08" cy="112.03" r="1.18" opacity="0.44"/><circle cx="1039.45" cy="118.84" r="1.18" opacity="0.44"/><circle cx="1045.75" cy="122.94" r="1.18" opacity="0.44"/><circle cx="1051.46" cy="127.84" r="1.18" opacity="0.44"/><circle cx="1056.46" cy="133.46" r="1.18" opacity="0.44"/><circle cx="1060.67" cy="139.69" r="1.18" opacity="0.44"/><circle cx="1064" cy="146.43" r="1.18" opacity="0.44"/><circle cx="1066.42" cy="153.55" r="1.18" opacity="0.44"/><circle cx="1067.86" cy="160.94" r="1.18" opacity="0.44"/><circle cx="1068.3" cy="168.44" r="1.18" opacity="0.44"/><circle cx="1067.74" cy="175.94" r="1.18" opacity="0.44"/><circle cx="1060.21" cy="197.07" r="1.18" opacity="0.44"/><circle cx="1040.94" cy="222.15" r="1.01" opacity="0.36"/><circle cx="1027.14" cy="227.5" r="1.01" opacity="0.36"/><circle cx="1019.86" cy="228.9" r="1.01" opacity="0.36"/><circle cx="1012.46" cy="229.4" r="1.01" opacity="0.36"/><circle cx="990.66" cy="225.57" r="1.01" opacity="0.36"/><circle cx="983.87" cy="222.58" r="1.01" opacity="0.36"/><circle cx="971.63" cy="214.26" r="1.01" opacity="0.36"/><circle cx="966.35" cy="209.06" r="1.01" opacity="0.36"/><circle cx="957.85" cy="196.94" r="1.01" opacity="0.36"/><circle cx="951.1" cy="175.86" r="1.01" opacity="0.36"/><circle cx="950.6" cy="168.46" r="1.01" opacity="0.36"/><circle cx="961.21" cy="133.5" r="1.01" opacity="0.36"/><circle cx="970.94" cy="122.35" r="1.01" opacity="0.36"/><circle cx="1004.14" cy="107.1" r="1.01" opacity="0.36"/><circle cx="1011.54" cy="106.6" r="1.01" opacity="0.36"/><circle cx="1026.25" cy="108.28" r="1.01" opacity="0.36"/><circle cx="1062.27" cy="132.74" r="1.01" opacity="0.36"/><circle cx="1069.25" cy="145.8" r="1.01" opacity="0.36"/><circle cx="1073.4" cy="167.54" r="1.01" opacity="0.36"/><circle cx="1073.01" cy="174.95" r="1.01" opacity="0.36"/><circle cx="1071.72" cy="182.25" r="1.01" opacity="0.36"/><circle cx="1062.79" cy="202.5" r="1.01" opacity="0.36"/><circle cx="1058.26" cy="208.37" r="1.01" opacity="0.36"/><circle cx="1053.06" cy="213.65" r="1.01" opacity="0.36"/><circle cx="1026.56" cy="232.89" r="0.83" opacity="0.29"/><circle cx="996.97" cy="232.78" r="0.83" opacity="0.29"/><circle cx="976.42" cy="224.18" r="0.83" opacity="0.29"/><circle cx="964.81" cy="214.85" r="0.83" opacity="0.29"/><circle cx="959.86" cy="209.27" r="0.83" opacity="0.29"/><circle cx="951.98" cy="196.64" r="0.83" opacity="0.29"/><circle cx="945.95" cy="160.32" r="0.83" opacity="0.29"/><circle cx="952.19" cy="138.93" r="0.83" opacity="0.29"/><circle cx="955.82" cy="132.42" r="0.83" opacity="0.29"/><circle cx="960.16" cy="126.35" r="0.83" opacity="0.29"/><circle cx="990.26" cy="105.15" r="0.83" opacity="0.29"/><circle cx="997.44" cy="103.11" r="0.83" opacity="0.29"/><circle cx="1012.24" cy="101.5" r="0.83" opacity="0.29"/><circle cx="1019.68" cy="101.95" r="0.83" opacity="0.29"/><circle cx="1027.03" cy="103.22" r="0.83" opacity="0.29"/><circle cx="1047.58" cy="111.82" r="0.83" opacity="0.29"/><circle cx="1068.43" cy="132.82" r="0.83" opacity="0.29"/><circle cx="1076.89" cy="153.44" r="0.83" opacity="0.29"/><circle cx="1078.5" cy="168.24" r="0.83" opacity="0.29"/><circle cx="1074.69" cy="190.19" r="0.83" opacity="0.29"/><circle cx="1071.81" cy="197.07" r="0.83" opacity="0.29"/><circle cx="1058.85" cy="215.19" r="0.83" opacity="0.29"/><circle cx="1047.18" cy="224.43" r="0.83" opacity="0.29"/><circle cx="1040.64" cy="228.02" r="0.83" opacity="0.29"/><circle cx="1001.02" cy="238.75" r="0.64" opacity="0.2"/><circle cx="979.7" cy="231.9" r="0.64" opacity="0.2"/><circle cx="973.19" cy="228.17" r="0.64" opacity="0.2"/><circle cx="961.53" cy="218.79" r="0.64" opacity="0.2"/><circle cx="956.5" cy="213.23" r="0.64" opacity="0.2"/><circle cx="940.51" cy="171.97" r="0.64" opacity="0.2"/><circle cx="986.13" cy="101.24" r="0.64" opacity="0.2"/><circle cx="1044.3" cy="104.1" r="0.64" opacity="0.2"/><circle cx="1067.5" cy="122.77" r="0.64" opacity="0.2"/><circle cx="1082.68" cy="156.58" r="0.64" opacity="0.2"/><circle cx="1082.75" cy="178.98" r="0.64" opacity="0.2"/><circle cx="1067.79" cy="212.88" r="0.64" opacity="0.2"/><circle cx="1015.97" cy="239.49" r="0.64" opacity="0.2"/></g><circle cx="1012" cy="168" r="132" fill="url(#halo)"/><circle cx="1012" cy="168" r="36" fill="url(#pupil)"/><circle cx="1012" cy="168" r="36" fill="none" stroke="url(#ray)" stroke-width="6" opacity="0.32"/><circle cx="1012" cy="168" r="36" fill="none" stroke="#FFFFFF" stroke-width="1.5" opacity="0.9"/><circle cx="1012" cy="168" r="14" fill="none" stroke="#22BF2F" stroke-width="0.7" opacity="0.55"/><rect x="844" y="166.8" width="336" height="2.4" fill="url(#flare)"/><rect x="1011.2" y="80" width="1.6" height="176" fill="url(#flare)" opacity="0.38"/><g stroke="#F2F4F1" stroke-width="0.7" opacity="0.32" fill="none"><circle cx="1012" cy="168" r="150" opacity="0.4"/><path d="M1162 168L1172 168"/><path d="M862 168L852 168"/><path d="M1012 318L1012 328"/><path d="M1012 18L1012 8"/></g></g><rect width="1280" height="340" fill="url(#scan)" opacity="0.22"/><rect width="1280" height="340" fill="url(#veil)"/><rect width="1280" height="340" filter="url(#grain)" opacity="0.05"/><circle cx="70" cy="70" r="4" fill="#9BF745"/><text x="88" y="75" font-family="Conso, ui-monospace, Cascadia Mono, Consolas, monospace" font-size="13" letter-spacing="2.6" fill="#8E9AA0">ZENTROPY LABS  /  GENERATIVE WORLDS, WITH A RE-CHECKABLE RECEIPT</text><text x="64" y="188" font-family="Hanken Grotesk, Segoe UI, ui-sans-serif, system-ui, sans-serif" font-size="78" font-weight="800" letter-spacing="1" fill="#F2F4F1">STUDIO-ENGINE</text><text x="66" y="232" font-family="Hanken Grotesk, Segoe UI, ui-sans-serif, system-ui, sans-serif" font-size="21" fill="#C6CFD3">Generate a world, then re-render it and check the hash yourself.</text><path d="M64 268H700" stroke="#F2F4F1" stroke-width="0.8" opacity="0.2"/><text x="66" y="297" font-family="Conso, ui-monospace, Cascadia Mono, Consolas, monospace" font-size="12.5" letter-spacing="2.2" fill="#8E9AA0">SEED  /  GENERATE  /  CRITIQUE  /  REFINE  /  WITNESS</text><text x="1216" y="297" font-family="Conso, ui-monospace, Cascadia Mono, Consolas, monospace" font-size="12" text-anchor="end" letter-spacing="1.4" fill="#8E9AA0" opacity="0.75">SEED 99937</text></svg>
